<svg xmlns="http://www.w3.org/2000/svg" viewBox="0 0 40 40"><defs><style>.anps-acc-1-1,.anps-acc-1-2{fill:none;}.anps-acc-1-1{stroke:currentColor;stroke-miterlimit:10;}</style></defs><title>bank</title><g id="Layer_2" data-name="Layer 2"><g id="Layer_1-2" data-name="Layer 1"><rect class="anps-acc-1-1" x="5.8" y="30.73" width="28.4" height="2.72" rx="1" ry="1"/><circle class="anps-acc-1-1" cx="20" cy="12.62" r="2.23"/><polygon class="anps-acc-1-1" points="5.8 17.58 34.2 17.58 34.2 15.47 20 6.55 5.8 15.47 5.8 17.58"/><line class="anps-acc-1-1" x1="8.06" y1="30.73" x2="8.57" y2="19.46"/><line class="anps-acc-1-1" x1="12.06" y1="30.73" x2="11.56" y2="19.46"/><polyline class="anps-acc-1-1" points="12.64 17.58 12.64 19.46 7.48 19.46 7.48 17.58"/><line class="anps-acc-1-1" x1="18" y1="30.73" x2="18.51" y2="19.46"/><line class="anps-acc-1-1" x1="22" y1="30.73" x2="21.49" y2="19.46"/><polyline class="anps-acc-1-1" points="22.58 17.58 22.58 19.46 17.42 19.46 17.42 17.58"/><line class="anps-acc-1-1" x1="27.94" y1="30.73" x2="28.44" y2="19.46"/><line class="anps-acc-1-1" x1="31.94" y1="30.73" x2="31.43" y2="19.46"/><polyline class="anps-acc-1-1" points="32.52 17.58 32.52 19.46 27.36 19.46 27.36 17.58"/><rect class="anps-acc-1-2" width="40" height="40"/></g></g></svg>
