<svg xmlns="http://www.w3.org/2000/svg" viewBox="0 0 40 40"><defs><style>.anps-acc-2-1,.anps-acc-2-2{fill:none;}.anps-acc-2-1{stroke:currentColor;stroke-miterlimit:10;}</style></defs><title>bitcoin</title><g id="Layer_2" data-name="Layer 2"><g id="Layer_1-2" data-name="Layer 1"><polyline class="anps-acc-2-1" points="29.74 6.69 29.74 10.26 26.17 10.26"/><polyline class="anps-acc-2-1" points="13.83 29.74 10.26 29.74 10.26 33.31"/><path class="anps-acc-2-1" d="M31.93,13.1A13.78,13.78,0,0,1,10.26,29.75"/><path class="anps-acc-2-1" d="M8.06,26.89A13.78,13.78,0,0,1,29.74,10.25"/><line class="anps-acc-2-1" x1="16.81" y1="13.95" x2="16.81" y2="26.05"/><path class="anps-acc-2-1" d="M15.15,26h7.24a2.46,2.46,0,0,0,2.46-2.46V22.27a2.46,2.46,0,0,0-2.46-2.46H16.81"/><path class="anps-acc-2-1" d="M21.72,19.81a2.46,2.46,0,0,0,2.46-2.46v-.95A2.46,2.46,0,0,0,21.72,14H15.15"/><line class="anps-acc-2-1" x1="20.87" y1="11.52" x2="20.87" y2="13.95"/><line class="anps-acc-2-1" x1="18.36" y1="11.52" x2="18.36" y2="13.95"/><line class="anps-acc-2-1" x1="20.87" y1="26.05" x2="20.87" y2="28.48"/><line class="anps-acc-2-1" x1="18.36" y1="26.05" x2="18.36" y2="28.48"/><rect class="anps-acc-2-2" width="40" height="40"/></g></g></svg>
