<svg xmlns="http://www.w3.org/2000/svg" viewBox="0 0 40 40"><defs><style>.anps-acc-4-1,.anps-acc-4-2{fill:none;}.anps-acc-4-1{stroke:currentColor;stroke-miterlimit:10;}</style></defs><title>certificate-1</title><g id="Layer_2" data-name="Layer 2"><g id="Layer_1-2" data-name="Layer 1"><line class="anps-acc-4-1" x1="12.11" y1="9.24" x2="18.74" y2="9.24"/><line class="anps-acc-4-1" x1="12.11" y1="11.53" x2="18.74" y2="11.53"/><polyline class="anps-acc-4-1" points="22.67 31.21 26.62 38.05 27.67 35.46 30.43 35.85 25.96 28.1"/><polyline class="anps-acc-4-1" points="17.35 31.21 13.4 38.05 12.35 35.46 9.59 35.85 14.06 28.1"/><circle class="anps-acc-4-1" cx="20.01" cy="25" r="4.4"/><polygon class="anps-acc-4-1" points="20.01 18.77 21.27 18.21 22.24 19.19 23.62 19.12 24.16 20.38 25.48 20.81 25.53 22.19 26.6 23.07 26.15 24.37 26.83 25.57 25.94 26.63 26.14 28 24.93 28.66 24.63 30.01 23.26 30.18 22.49 31.33 21.14 31 20.01 31.79 18.88 31 17.54 31.33 16.76 30.18 15.39 30.01 15.09 28.66 13.88 28 14.08 26.63 13.19 25.57 13.87 24.37 13.42 23.07 14.49 22.19 14.54 20.81 15.86 20.38 16.4 19.12 17.78 19.19 18.75 18.21 20.01 18.77"/><line class="anps-acc-4-1" x1="24.7" y1="34.72" x2="15.32" y2="34.72"/><path class="anps-acc-4-1" d="M10.29,34.64a2,2,0,0,1-1.44-1.92V7.28a2,2,0,0,1,2-2h18.3a2,2,0,0,1,2,2V32.72a2,2,0,0,1-1.42,1.91"/><rect class="anps-acc-4-2" width="40" height="40"/></g></g></svg>
