<svg xmlns="http://www.w3.org/2000/svg" viewBox="0 0 40 40"><defs><style>.anps-acc-5-1,.anps-acc-5-2{fill:none;}.anps-acc-5-1{stroke:currentColor;stroke-miterlimit:10;}</style></defs><title>certificate-2</title><g id="Layer_2" data-name="Layer 2"><g id="Layer_1-2" data-name="Layer 1"><polyline class="anps-acc-5-1" points="24.65 27.08 29.62 35.68 31.46 31.11 36.34 31.8 30.53 21.75"/><polyline class="anps-acc-5-1" points="15.35 27.08 10.38 35.68 8.54 31.11 3.66 31.8 9.47 21.75"/><circle class="anps-acc-5-1" cx="20.01" cy="16.3" r="7.76"/><polygon class="anps-acc-5-1" points="20.01 5.32 22.23 4.32 23.93 6.05 26.37 5.92 27.33 8.16 29.65 8.91 29.74 11.35 31.63 12.89 30.84 15.19 32.04 17.31 30.47 19.17 30.82 21.58 28.69 22.75 28.15 25.13 25.73 25.45 24.37 27.47 22 26.89 20.01 28.28 18.01 26.89 15.64 27.47 14.28 25.45 11.86 25.13 11.33 22.75 9.19 21.58 9.54 19.17 7.97 17.31 9.18 15.19 8.38 12.89 10.27 11.35 10.36 8.91 12.68 8.16 13.64 5.92 16.08 6.05 17.79 4.32 20.01 5.32"/><line class="anps-acc-5-1" x1="14.78" y1="14.56" x2="25.22" y2="14.56"/><line class="anps-acc-5-1" x1="14.78" y1="17.13" x2="25.22" y2="17.13"/><line class="anps-acc-5-1" x1="17.33" y1="19.69" x2="22.67" y2="19.69"/><rect class="anps-acc-5-2" width="40" height="40"/></g></g></svg>
