<svg xmlns="http://www.w3.org/2000/svg" viewBox="0 0 40 40"><defs><style>.anps-acc-6-1,.anps-acc-6-2{fill:none;}.anps-acc-6-1{stroke:currentColor;stroke-miterlimit:10;}</style></defs><title>chess</title><g id="Layer_2" data-name="Layer 2"><g id="Layer_1-2" data-name="Layer 1"><rect class="anps-acc-6-1" x="21.52" y="5.94" width="10.8" height="3.96" rx="0.5" ry="0.5"/><rect class="anps-acc-6-1" x="22.9" y="9.9" width="8.04" height="2.69" rx="0.5" ry="0.5"/><line class="anps-acc-6-1" x1="24.59" y1="5.94" x2="24.59" y2="7.72"/><line class="anps-acc-6-1" x1="29.25" y1="5.94" x2="29.25" y2="7.72"/><path class="anps-acc-6-1" d="M30,12.59s-.23,8.81,2.51,15.47"/><path class="anps-acc-6-1" d="M23.81,12.59S24,21.4,21.3,28.06"/><path class="anps-acc-6-1" d="M20.23,30.22V20.06a14,14,0,0,0-.77-3.46,6.16,6.16,0,0,0-4.33-3.69,2.75,2.75,0,0,0-2.19-2.39l.29,2.34c-.26,0-1.33.35-1.33.35l.24.79a7.12,7.12,0,0,0-1.94.8l-.3.59a37.7,37.7,0,0,1-3.46,3.13A.61.61,0,0,0,6.4,19a2.17,2.17,0,0,1,0,.64c0,.17-.18.66,0,.87a2.89,2.89,0,0,0,.56.64c.34.28.46.2,1.4.35a1.66,1.66,0,0,0,1.55-.84,1.11,1.11,0,0,1,1.23-.42,3.24,3.24,0,0,0,3,.23,22.9,22.9,0,0,0-3.63,4.39c-2.17,3.18-.62,5.36-.62,5.36"/><rect class="anps-acc-6-1" x="8.65" y="30.22" width="12.5" height="3.84" rx="0.5" ry="0.5"/><path class="anps-acc-6-1" d="M20.23,28.06H33.14a.5.5,0,0,1,.5.5v5a.5.5,0,0,1-.5.5H20.55"/><rect class="anps-acc-6-2" width="40" height="40"/></g></g></svg>
