<svg xmlns="http://www.w3.org/2000/svg" viewBox="0 0 40 40"><defs><style>.anps-acc-7-1,.anps-acc-7-2{fill:none;}.anps-acc-7-1{stroke:currentColor;stroke-miterlimit:10;}</style></defs><title>clipboard</title><g id="Layer_2" data-name="Layer 2"><g id="Layer_1-2" data-name="Layer 1"><rect class="anps-acc-7-1" x="15.86" y="6.13" width="8.29" height="4.98"/><path class="anps-acc-7-1" d="M17.19,6.13a2.81,2.81,0,0,1,5.62,0"/><line class="anps-acc-7-1" x1="14.54" y1="30.29" x2="14.54" y2="27.54"/><line class="anps-acc-7-1" x1="17.27" y1="30.29" x2="17.27" y2="23.94"/><line class="anps-acc-7-1" x1="20" y1="30.29" x2="20" y2="25.13"/><line class="anps-acc-7-1" x1="22.73" y1="30.29" x2="22.73" y2="21.63"/><line class="anps-acc-7-1" x1="25.46" y1="30.29" x2="25.46" y2="23.03"/><path class="anps-acc-7-1" d="M24.14,7.24h5a2,2,0,0,1,2,2V34.68a2,2,0,0,1-2,2H10.85a2,2,0,0,1-2-2V9.24a2,2,0,0,1,2-2h5"/><path class="anps-acc-7-1" d="M24.14,9.42h4.6a.5.5,0,0,1,.5.5V34a.5.5,0,0,1-.5.5H11.26a.5.5,0,0,1-.5-.5V9.92a.5.5,0,0,1,.5-.5h4.6"/><rect class="anps-acc-7-2" width="40" height="40"/></g></g></svg>
