<svg xmlns="http://www.w3.org/2000/svg" viewBox="0 0 40 40"><defs><style>.anps-acc-9-1,.anps-acc-9-2{fill:none;}.anps-acc-9-1{stroke:currentColor;stroke-miterlimit:10;}</style></defs><title>coins-growth</title><g id="Layer_2" data-name="Layer 2"><g id="Layer_1-2" data-name="Layer 1"><line class="anps-acc-9-1" x1="5.01" y1="17.3" x2="18.96" y2="3.35"/><circle class="anps-acc-9-1" cx="7.41" cy="5.75" r="2.59"/><circle class="anps-acc-9-1" cx="16.56" cy="14.9" r="2.59"/><path class="anps-acc-9-1" d="M24.29,9.91c0,.94,2.57,1.71,5.73,1.71s5.73-.77,5.73-1.71"/><path class="anps-acc-9-1" d="M24.29,6.68c0,.94,2.57,1.71,5.73,1.71s5.73-.77,5.73-1.71"/><path class="anps-acc-9-1" d="M24.29,13.13c0,.94,2.57,1.71,5.73,1.71s5.73-.77,5.73-1.71"/><path class="anps-acc-9-1" d="M24.29,16.35c0,.94,2.57,1.71,5.73,1.71s5.73-.77,5.73-1.71"/><path class="anps-acc-9-1" d="M24.29,19.57c0,.94,2.57,1.71,5.73,1.71s5.73-.77,5.73-1.71"/><path class="anps-acc-9-1" d="M24.29,22.79c0,.94,2.57,1.71,5.73,1.71s5.73-.77,5.73-1.71"/><path class="anps-acc-9-1" d="M14.13,26.87c0-.94,2.57-1.71,5.73-1.71s5.73.77,5.73,1.71v6.44C25.6,34.26,23,35,19.87,35s-5.73-.77-5.73-1.71Z"/><path class="anps-acc-9-1" d="M14.13,26.87c0,.94,2.57,1.71,5.73,1.71s5.73-.77,5.73-1.71"/><path class="anps-acc-9-1" d="M14.13,30.09c0,.94,2.57,1.71,5.73,1.71S25.6,31,25.6,30.09"/><path class="anps-acc-9-1" d="M4.24,22.43c0,.94,2.57,1.71,5.73,1.71s5.73-.77,5.73-1.71"/><path class="anps-acc-9-1" d="M4.24,25.65c0,.94,2.57,1.71,5.73,1.71a14.58,14.58,0,0,0,4.15-.53"/><path class="anps-acc-9-1" d="M4.24,28.88c0,.94,2.57,1.71,5.73,1.71a14.58,14.58,0,0,0,4.15-.53"/><path class="anps-acc-9-1" d="M14.13,33.28a14.55,14.55,0,0,1-4.16.53c-3.17,0-5.73-.77-5.73-1.71V22.43c0-.94,2.57-1.71,5.73-1.71s5.73.77,5.73,1.71v3.26"/><path class="anps-acc-9-1" d="M25.6,27.1a13.82,13.82,0,0,0,4.43.62c3.17,0,5.73-.77,5.73-1.71"/><path class="anps-acc-9-1" d="M24.29,25.78V6.68C24.29,5.74,26.86,5,30,5s5.73.77,5.73,1.71V29.24c0,.94-2.57,1.71-5.73,1.71a13.83,13.83,0,0,1-4.42-.62"/><rect class="anps-acc-9-2" width="40" height="40"/></g></g></svg>
