<svg xmlns="http://www.w3.org/2000/svg" viewBox="0 0 40 40"><defs><style>.anps-acc-8-1,.anps-acc-8-2{fill:none;}.anps-acc-8-1{stroke:currentColor;stroke-miterlimit:10;}</style></defs><title>coins</title><g id="Layer_2" data-name="Layer 2"><g id="Layer_1-2" data-name="Layer 1"><path class="anps-acc-8-1" d="M14.47,10.09c0,.94,2.57,1.71,5.73,1.71s5.73-.77,5.73-1.71"/><path class="anps-acc-8-1" d="M14.47,6.87c0,.94,2.57,1.71,5.73,1.71s5.73-.77,5.73-1.71"/><path class="anps-acc-8-1" d="M14.47,13.31C14.47,14.25,17,15,20.2,15s5.73-.77,5.73-1.71"/><path class="anps-acc-8-1" d="M14.47,16.53c0,.94,2.57,1.71,5.73,1.71s5.73-.77,5.73-1.71"/><path class="anps-acc-8-1" d="M22.95,19.39c0-.94,2.57-1.71,5.73-1.71s5.73.77,5.73,1.71V32.28c0,.94-2.57,1.71-5.73,1.71s-5.73-.77-5.73-1.71Z"/><path class="anps-acc-8-1" d="M22.95,19.39c0,.94,2.57,1.71,5.73,1.71s5.73-.77,5.73-1.71"/><path class="anps-acc-8-1" d="M22.95,22.61c0,.94,2.57,1.71,5.73,1.71s5.73-.77,5.73-1.71"/><path class="anps-acc-8-1" d="M22.95,25.84c0,.94,2.57,1.71,5.73,1.71s5.73-.77,5.73-1.71"/><path class="anps-acc-8-1" d="M22.95,29.06c0,.94,2.57,1.71,5.73,1.71s5.73-.77,5.73-1.71"/><path class="anps-acc-8-1" d="M5.36,26.69c0-.94,2.57-1.71,5.73-1.71s5.73.77,5.73,1.71v6.44c0,.94-2.57,1.71-5.73,1.71s-5.73-.77-5.73-1.71Z"/><path class="anps-acc-8-1" d="M5.36,26.69c0,.94,2.57,1.71,5.73,1.71s5.73-.77,5.73-1.71"/><path class="anps-acc-8-1" d="M5.36,29.91c0,.94,2.57,1.71,5.73,1.71s5.73-.77,5.73-1.71"/><path class="anps-acc-8-1" d="M14.47,25.31V6.87c0-.94,2.57-1.71,5.73-1.71s5.73.77,5.73,1.71v11"/><path class="anps-acc-8-1" d="M22.95,30.92a17.29,17.29,0,0,1-2.74.21,16.24,16.24,0,0,1-3.38-.33"/><path class="anps-acc-8-1" d="M14.47,19.75c0,.94,2.57,1.71,5.73,1.71a17.29,17.29,0,0,0,2.74-.21"/><path class="anps-acc-8-1" d="M14.47,23c0,.94,2.57,1.71,5.73,1.71a17.29,17.29,0,0,0,2.74-.21"/><path class="anps-acc-8-1" d="M16.82,27.58a16.24,16.24,0,0,0,3.38.33,17.29,17.29,0,0,0,2.74-.21"/><rect class="anps-acc-8-2" width="40" height="40"/></g></g></svg>
