<svg xmlns="http://www.w3.org/2000/svg" viewBox="0 0 40 40"><defs><style>.anps-acc-12-1,.anps-acc-12-2,.anps-acc-12-3{fill:none;}.anps-acc-12-1,.anps-acc-12-2{stroke:currentColor;}.anps-acc-12-1{stroke-miterlimit:10;}.anps-acc-12-2{stroke-linejoin:round;}</style></defs><title>docs-in-progress</title><g id="Layer_2" data-name="Layer 2"><g id="Layer_1-2" data-name="Layer 1"><path class="anps-acc-12-1" d="M8.85,31.93H8.07a2,2,0,0,1-2-2V4.5a2,2,0,0,1,2-2h18.3a2,2,0,0,1,2,2v.78"/><path class="anps-acc-12-1" d="M11.64,34.72h-.78a2,2,0,0,1-2-2V7.28a2,2,0,0,1,2-2h18.3a2,2,0,0,1,2,2v6"/><path class="anps-acc-12-1" d="M33.93,35.72a1.79,1.79,0,0,1-1.78,1.78H13.42a1.79,1.79,0,0,1-1.78-1.78V9.85a1.79,1.79,0,0,1,1.78-1.78H25.91l8,8Z"/><circle class="anps-acc-12-1" cx="22.78" cy="25.95" r="7.9"/><polyline class="anps-acc-12-1" points="22.78 20.1 22.78 25.95 28.24 25.95"/><line class="anps-acc-12-1" x1="14.9" y1="12.03" x2="21.52" y2="12.03"/><line class="anps-acc-12-1" x1="14.9" y1="14.31" x2="21.52" y2="14.31"/><polyline class="anps-acc-12-2" points="25.91 8.07 25.91 16.09 33.93 16.09"/><rect class="anps-acc-12-3" width="40" height="40"/></g></g></svg>
