<svg xmlns="http://www.w3.org/2000/svg" viewBox="0 0 40 40"><defs><style>.anps-acc-11-1,.anps-acc-11-2,.anps-acc-11-3{fill:none;}.anps-acc-11-1,.anps-acc-11-2{stroke:currentColor;}.anps-acc-11-1{stroke-miterlimit:10;}.anps-acc-11-2{stroke-linejoin:round;}</style></defs><title>doc-signed</title><g id="Layer_2" data-name="Layer 2"><g id="Layer_1-2" data-name="Layer 1"><path class="anps-acc-11-1" d="M31.15,32.93a1.79,1.79,0,0,1-1.78,1.78H10.64a1.79,1.79,0,0,1-1.78-1.78V7.07a1.79,1.79,0,0,1,1.78-1.78H23.12l8,8Z"/><line class="anps-acc-11-1" x1="12.11" y1="9.24" x2="18.74" y2="9.24"/><line class="anps-acc-11-1" x1="12.11" y1="11.53" x2="18.74" y2="11.53"/><path class="anps-acc-11-1" d="M28.06,28.43a5.91,5.91,0,0,1-1.7,1.3,1.9,1.9,0,0,1-2-.19,2.07,2.07,0,0,1-.09-2.69,1.4,1.4,0,0,1,.82-.56.78.78,0,0,1,.85.41,1.25,1.25,0,0,1-.33,1.23,4.26,4.26,0,0,1-3.32,1.59,2.31,2.31,0,0,1-1.2-.35c-.85-.53-1.52-3-.39-5a4.11,4.11,0,0,1,2.16-2.13,1.44,1.44,0,0,1,1.74.54,1.6,1.6,0,0,1,.13.81A4.7,4.7,0,0,1,23.53,26c-1.65,2-4.57,4.42-7.92,3.54a4.61,4.61,0,0,1-3.11-4.36C12.33,22,17.27,18,21.5,23"/><polyline class="anps-acc-11-2" points="23.12 5.28 23.12 13.31 31.15 13.31"/><rect class="anps-acc-11-3" width="40" height="40"/></g></g></svg>
