<svg xmlns="http://www.w3.org/2000/svg" viewBox="0 0 40 40"><defs><style>.anps-acc-17-1,.anps-acc-17-2{fill:none;}.anps-acc-17-1{stroke:currentColor;stroke-miterlimit:10;}</style></defs><title>forecast</title><g id="Layer_2" data-name="Layer 2"><g id="Layer_1-2" data-name="Layer 1"><rect class="anps-acc-17-1" x="11.84" y="5.36" width="7.05" height="2.66" rx="0.5" ry="0.5"/><rect class="anps-acc-17-1" x="6.74" y="31.02" width="11.07" height="3.62" rx="0.5" ry="0.5"/><line class="anps-acc-17-1" x1="17.5" y1="8.02" x2="17.5" y2="11.58"/><line class="anps-acc-17-1" x1="13.23" y1="8.02" x2="13.23" y2="11.58"/><path class="anps-acc-17-1" d="M8.13,22.12a.5.5,0,0,0,.5.5h8.8a.5.5,0,0,0,.5-.5v-10a.5.5,0,0,0-.5-.5H11.68a.94.94,0,0,0-.74.44L8.37,16.66a2.3,2.3,0,0,0-.24.94Z"/><line class="anps-acc-17-1" x1="17.81" y1="13.89" x2="22.08" y2="13.89"/><line class="anps-acc-17-1" x1="17.81" y1="20.84" x2="22.08" y2="20.84"/><line class="anps-acc-17-1" x1="17.05" y1="22.62" x2="17.05" y2="31.02"/><line class="anps-acc-17-1" x1="8.95" y1="22.62" x2="7.31" y2="31.02"/><rect class="anps-acc-17-1" x="21.11" y="5.36" width="7.05" height="2.66" rx="0.5" ry="0.5"/><rect class="anps-acc-17-1" x="22.19" y="31.02" width="11.07" height="3.62" rx="0.5" ry="0.5"/><line class="anps-acc-17-1" x1="22.5" y1="8.02" x2="22.5" y2="11.58"/><line class="anps-acc-17-1" x1="26.77" y1="8.02" x2="26.77" y2="11.58"/><path class="anps-acc-17-1" d="M31.87,22.12a.5.5,0,0,1-.5.5h-8.8a.5.5,0,0,1-.5-.5v-10a.5.5,0,0,1,.5-.5h5.76a.94.94,0,0,1,.74.44l2.56,4.65a2.3,2.3,0,0,1,.24.94Z"/><line class="anps-acc-17-1" x1="22.95" y1="22.62" x2="22.95" y2="31.02"/><line class="anps-acc-17-1" x1="31.05" y1="22.62" x2="32.69" y2="31.02"/><rect class="anps-acc-17-2" width="40" height="40"/></g></g></svg>
