<svg xmlns="http://www.w3.org/2000/svg" viewBox="0 0 40 40"><defs><style>.anps-acc-20-1,.anps-acc-20-2{fill:none;}.anps-acc-20-1{stroke:currentColor;stroke-miterlimit:10;}</style></defs><title>graph-statistics</title><g id="Layer_2" data-name="Layer 2"><g id="Layer_1-2" data-name="Layer 1"><polyline class="anps-acc-20-1" points="34.2 34.2 5.8 34.2 5.8 5.8"/><rect class="anps-acc-20-1" x="8.5" y="27.93" width="3.2" height="3.2"/><rect class="anps-acc-20-1" x="14.17" y="18.95" width="3.2" height="3.2"/><rect class="anps-acc-20-1" x="22.22" y="25.37" width="3.2" height="3.2"/><rect class="anps-acc-20-1" x="30.41" y="16.32" width="3.2" height="3.2"/><polyline class="anps-acc-20-1" points="3.27 8.3 5.8 5.78 8.32 8.3"/><polyline class="anps-acc-20-1" points="31.68 31.68 34.2 34.2 31.68 36.73"/><circle class="anps-acc-20-1" cx="10.1" cy="14.98" r="1.83"/><circle class="anps-acc-20-1" cx="31.78" cy="26.13" r="1.83"/><polyline class="anps-acc-20-1" points="11.93 14.98 22.22 14.98 30.59 24.74"/><line class="anps-acc-20-1" x1="11.11" y1="27.93" x2="14.76" y2="22.16"/><line class="anps-acc-20-1" x1="17.38" y1="21.83" x2="22.22" y2="25.69"/><line class="anps-acc-20-1" x1="25.28" y1="25.37" x2="30.59" y2="19.52"/><rect class="anps-acc-20-2" width="40" height="40"/></g></g></svg>
