<svg xmlns="http://www.w3.org/2000/svg" viewBox="0 0 40 40"><defs><style>.anps-acc-14-1,.anps-acc-14-2{fill:none;}.anps-acc-14-1{stroke:currentColor;stroke-miterlimit:10;}</style></defs><title>law</title><g id="Layer_2" data-name="Layer 2"><g id="Layer_1-2" data-name="Layer 1"><rect class="anps-acc-14-1" x="13.81" y="31.3" width="12.37" height="3.17" rx="1" ry="1"/><line class="anps-acc-14-1" x1="20" y1="31.3" x2="20" y2="13.16"/><line class="anps-acc-14-1" x1="20" y1="8.56" x2="20" y2="5.52"/><circle class="anps-acc-14-1" cx="20" cy="10.86" r="2.3"/><line class="anps-acc-14-1" x1="17.7" y1="10.86" x2="10.36" y2="10.86"/><circle class="anps-acc-14-1" cx="9.01" cy="10.86" r="1.35"/><path class="anps-acc-14-1" d="M9,23.64a4.91,4.91,0,0,0,4.91-4.91H4.1A4.91,4.91,0,0,0,9,23.64Z"/><path class="anps-acc-14-1" d="M31,23.64a4.91,4.91,0,0,0,4.91-4.91H26.07A4.91,4.91,0,0,0,31,23.64Z"/><line class="anps-acc-14-1" x1="22.3" y1="10.86" x2="29.63" y2="10.86"/><circle class="anps-acc-14-1" cx="30.99" cy="10.86" r="1.35"/><line class="anps-acc-14-1" x1="8.38" y1="12.06" x2="4.63" y2="18.73"/><line class="anps-acc-14-1" x1="9.65" y1="12.06" x2="13.39" y2="18.73"/><line class="anps-acc-14-1" x1="30.35" y1="12.05" x2="26.61" y2="18.73"/><line class="anps-acc-14-1" x1="31.62" y1="12.05" x2="35.37" y2="18.73"/><rect class="anps-acc-14-2" width="40" height="40"/></g></g></svg>
