<svg xmlns="http://www.w3.org/2000/svg" viewBox="0 0 40 40"><defs><style>.anps-acc-22-1,.anps-acc-22-2{fill:none;}.anps-acc-22-1{stroke:currentColor;stroke-miterlimit:10;}</style></defs><title>online-transfer</title><g id="Layer_2" data-name="Layer 2"><g id="Layer_1-2" data-name="Layer 1"><rect class="anps-acc-22-1" x="3.05" y="15.32" width="15.54" height="2.02" rx="0.5" ry="0.5"/><polygon class="anps-acc-22-1" points="3.05 8.08 18.59 8.08 18.59 6.99 10.82 3.06 3.05 6.99 3.05 8.08"/><rect class="anps-acc-22-1" x="22.5" y="25.1" width="13.67" height="9.98" rx="1" ry="1"/><line class="anps-acc-22-1" x1="20.36" y1="36.71" x2="38.3" y2="36.71"/><polyline class="anps-acc-22-1" points="36.17 19.41 33.64 21.93 31.12 19.41"/><polyline class="anps-acc-22-1" points="8.75 22.52 6.22 20 3.7 22.52"/><path class="anps-acc-22-1" d="M19.77,33.78A13.78,13.78,0,0,1,6.22,20"/><line class="anps-acc-22-1" x1="9.78" y1="15.32" x2="9.78" y2="8.08"/><line class="anps-acc-22-1" x1="11.83" y1="15.32" x2="11.83" y2="8.08"/><line class="anps-acc-22-1" x1="4.39" y1="15.32" x2="4.39" y2="8.08"/><line class="anps-acc-22-1" x1="6.45" y1="15.32" x2="6.45" y2="8.08"/><line class="anps-acc-22-1" x1="15.16" y1="15.32" x2="15.16" y2="8.08"/><line class="anps-acc-22-1" x1="17.22" y1="15.32" x2="17.22" y2="8.08"/><path class="anps-acc-22-1" d="M20.8,6.24A13.79,13.79,0,0,1,33.65,21.92"/><rect class="anps-acc-22-2" width="40" height="40"/></g></g></svg>
