<svg xmlns="http://www.w3.org/2000/svg" viewBox="0 0 40 40"><defs><style>.anps-acc-27-1,.anps-acc-27-2{fill:none;}.anps-acc-27-1{stroke:currentColor;stroke-miterlimit:10;}</style></defs><title>safe</title><g id="Layer_2" data-name="Layer 2"><g id="Layer_1-2" data-name="Layer 1"><path class="anps-acc-27-1" d="M32.5,32.33V5.69a2,2,0,0,0-2-2H9.5a2,2,0,0,0-2,2V32.33Z"/><path class="anps-acc-27-1" d="M15.12,32.33v2a2,2,0,0,1-2,2H9.5a2,2,0,0,1-2-2v-2"/><path class="anps-acc-27-1" d="M32.5,32.33v2a2,2,0,0,1-2,2H26.88a2,2,0,0,1-2-2v-2"/><circle class="anps-acc-27-1" cx="20" cy="18.01" r="6.89"/><line class="anps-acc-27-1" x1="12.86" y1="25.15" x2="15.12" y2="22.89"/><line class="anps-acc-27-1" x1="24.88" y1="13.14" x2="27.14" y2="10.87"/><line class="anps-acc-27-1" x1="27.14" y1="25.15" x2="24.88" y2="22.89"/><line class="anps-acc-27-1" x1="15.12" y1="13.14" x2="12.86" y2="10.87"/><line class="anps-acc-27-1" x1="15.65" y1="15.32" x2="17.9" y2="15.32"/><line class="anps-acc-27-1" x1="18.87" y1="15.32" x2="21.13" y2="15.32"/><line class="anps-acc-27-1" x1="22.1" y1="15.32" x2="24.35" y2="15.32"/><line class="anps-acc-27-1" x1="15.65" y1="18.01" x2="17.9" y2="18.01"/><line class="anps-acc-27-1" x1="18.87" y1="18.01" x2="21.13" y2="18.01"/><line class="anps-acc-27-1" x1="22.1" y1="18.01" x2="24.35" y2="18.01"/><line class="anps-acc-27-1" x1="15.65" y1="20.7" x2="17.9" y2="20.7"/><line class="anps-acc-27-1" x1="18.87" y1="20.7" x2="21.13" y2="20.7"/><line class="anps-acc-27-1" x1="22.1" y1="20.7" x2="24.35" y2="20.7"/><rect class="anps-acc-27-2" width="40" height="40"/></g></g></svg>
