<svg xmlns="http://www.w3.org/2000/svg" viewBox="0 0 40 40"><defs><style>.anps-acc-29-1,.anps-acc-29-2{fill:none;}.anps-acc-29-1{stroke:currentColor;stroke-miterlimit:10;}</style></defs><title>signature-2</title><g id="Layer_2" data-name="Layer 2"><g id="Layer_1-2" data-name="Layer 1"><path class="anps-acc-29-1" d="M35.61,21.73v8.91a1,1,0,0,1-1,1h-.68"/><path class="anps-acc-29-1" d="M32.29,4.6,30.66,8.7V34.4a1,1,0,0,0,1,1h1.27a1,1,0,0,0,1-1V8.7Z"/><line class="anps-acc-29-1" x1="30.66" y1="8.7" x2="33.92" y2="8.7"/><line class="anps-acc-29-1" x1="30.66" y1="31.64" x2="33.92" y2="31.64"/><path class="anps-acc-29-1" d="M24.23,23.87a6.8,6.8,0,0,1-2,1.49A2.19,2.19,0,0,1,20,25.14a2.38,2.38,0,0,1-.1-3.09,1.61,1.61,0,0,1,.94-.65.9.9,0,0,1,1,.47,1.44,1.44,0,0,1-.38,1.42,4.9,4.9,0,0,1-3.82,1.83,2.66,2.66,0,0,1-1.38-.4c-1-.61-1.75-3.4-.45-5.73a4.73,4.73,0,0,1,2.49-2.45,1.66,1.66,0,0,1,2,.62,1.84,1.84,0,0,1,.15.93,5.4,5.4,0,0,1-1.4,3c-1.9,2.29-5.26,5.09-9.12,4.08-2.35-.61-3.48-3-3.58-5-.19-3.73,5.49-8.29,10.36-2.52"/><line class="anps-acc-29-1" x1="22.31" y1="14.9" x2="27.77" y2="14.9"/><line class="anps-acc-29-1" x1="22.31" y1="18.12" x2="27.77" y2="18.12"/><rect class="anps-acc-29-1" x="2.77" y="11.75" width="25" height="16.5" rx="2" ry="2"/><rect class="anps-acc-29-2" width="40" height="40"/></g></g></svg>
