<svg xmlns="http://www.w3.org/2000/svg" viewBox="0 0 40 40"><defs><style>.anps-acc-28-1,.anps-acc-28-2{fill:none;}.anps-acc-28-1{stroke:currentColor;stroke-miterlimit:10;}</style></defs><title>signature-1</title><g id="Layer_2" data-name="Layer 2"><g id="Layer_1-2" data-name="Layer 1"><path class="anps-acc-28-1" d="M25.61,9.88a23.42,23.42,0,0,0-2.25,10.21,23.54,23.54,0,0,0,2.09,9.86H27.5a23.54,23.54,0,0,0,2.09-9.86A23.42,23.42,0,0,0,27.34,9.88Z"/><line class="anps-acc-28-1" x1="23.36" y1="17.55" x2="29.46" y2="17.55"/><path class="anps-acc-28-1" d="M27.34,9.88s3-.29,3.71,1.6c1.43,3.79-1.71,5.27.5,9"/><line class="anps-acc-28-1" x1="26.48" y1="29.94" x2="26.48" y2="32.47"/><path class="anps-acc-28-1" d="M29.59,20.7a8.81,8.81,0,0,1,3.72,5.92c.45,3.6-2.18,7.26-5.07,8"/><path class="anps-acc-28-1" d="M7.36,20.69a8.31,8.31,0,0,1,2.39-1.83,2.68,2.68,0,0,1,2.81.27,2.92,2.92,0,0,1,.13,3.78,2,2,0,0,1-1.15.79,1.1,1.1,0,0,1-1.19-.57,1.76,1.76,0,0,1,.46-1.73,6,6,0,0,1,4.67-2.24,3.25,3.25,0,0,1,1.69.49c1.2.75,2.13,4.16.55,7a5.79,5.79,0,0,1-3,3,2,2,0,0,1-2.45-.76A2.25,2.25,0,0,1,12,27.77a6.61,6.61,0,0,1,1.71-3.7,14,14,0,0,1,9.15-5l.49,0"/><rect class="anps-acc-28-2" width="40" height="40"/></g></g></svg>
