<svg xmlns="http://www.w3.org/2000/svg" viewBox="0 0 40 40"><defs><style>.anps-acc-30-1,.anps-acc-30-2,.anps-acc-30-3{fill:none;}.anps-acc-30-1,.anps-acc-30-2{stroke:currentColor;}.anps-acc-30-1{stroke-miterlimit:10;}.anps-acc-30-2{stroke-linejoin:round;}</style></defs><title>signature-3</title><g id="Layer_2" data-name="Layer 2"><g id="Layer_1-2" data-name="Layer 1"><path class="anps-acc-30-1" d="M6,32.28c3.72.81,7-1.43,8.78-3.27a4.06,4.06,0,0,0,1.35-2.43,1.26,1.26,0,0,0-.14-.75,1.78,1.78,0,0,0-1.93-.5,4.28,4.28,0,0,0-2.4,2c-1.25,1.87-.79,4.1.3,4.74,2.32,1.37,4.23-.36,5.13-1.29a3.13,3.13,0,0,0,2.17,1.94"/><line class="anps-acc-30-1" x1="20.08" y1="18.9" x2="6.98" y2="18.9"/><line class="anps-acc-30-1" x1="20.08" y1="21.33" x2="6.98" y2="21.33"/><path class="anps-acc-30-1" d="M31.86,19.6l4.45-7.72a1,1,0,0,0-.37-1.37l-.59-.34"/><path class="anps-acc-30-2" d="M20.42,32.78l.64-4.37L33,7.81l1-1.65a1,1,0,0,1,1.37-.37l1.1.63a1,1,0,0,1,.37,1.37l-1,1.65L23.89,30Z"/><line class="anps-acc-30-1" x1="21.06" y1="28.41" x2="23.89" y2="30.04"/><line class="anps-acc-30-1" x1="32.53" y1="8.55" x2="35.36" y2="10.18"/><path class="anps-acc-30-1" d="M29.27,14.19H5.77a2,2,0,0,0-2,2V33.25a2,2,0,0,0,2,2H33.08a2,2,0,0,0,2-2V16.19a2,2,0,0,0-2-2"/><rect class="anps-acc-30-3" width="40" height="40"/></g></g></svg>
