<svg xmlns="http://www.w3.org/2000/svg" viewBox="0 0 40 40"><defs><style>.anps-acc-32-1,.anps-acc-32-2{fill:none;}.anps-acc-32-1{stroke:currentColor;stroke-miterlimit:10;}</style></defs><title>stamp-1</title><g id="Layer_2" data-name="Layer 2"><g id="Layer_1-2" data-name="Layer 1"><path class="anps-acc-32-1" d="M28.43,22.59V19.46a1.36,1.36,0,0,0-1.35-1.35H12.87a1.36,1.36,0,0,0-1.35,1.35v3.14"/><rect class="anps-acc-32-1" x="10.81" y="22.59" width="18.48" height="1.84"/><path class="anps-acc-32-1" d="M25.58,18.1a3.52,3.52,0,0,1-3.52-3.52c0-1.95.6-2.88,1.41-4.66h0a3.9,3.9,0,1,0-7,0h0c.82,1.78,1.41,2.72,1.41,4.66a3.52,3.52,0,0,1-3.52,3.52"/><rect class="anps-acc-32-1" x="10.7" y="28.26" width="18.48" height="7.45" rx="0.5" ry="0.5"/><line class="anps-acc-32-1" x1="12.53" y1="30.94" x2="27.36" y2="30.94"/><line class="anps-acc-32-1" x1="12.53" y1="33.03" x2="27.36" y2="33.03"/><rect class="anps-acc-32-2" width="40" height="40"/></g></g></svg>
