<svg xmlns="http://www.w3.org/2000/svg" viewBox="0 0 40 40"><defs><style>.anps-acc-33-1,.anps-acc-33-2{fill:none;}.anps-acc-33-1{stroke:currentColor;stroke-miterlimit:10;}</style></defs><title>stamp2</title><g id="Layer_2" data-name="Layer 2"><g id="Layer_1-2" data-name="Layer 1"><path class="anps-acc-33-1" d="M24,30.08V26.94a1.36,1.36,0,0,0-1.35-1.35H8.42a1.36,1.36,0,0,0-1.35,1.35v3.14"/><rect class="anps-acc-33-1" x="6.36" y="30.08" width="18.48" height="1.84"/><path class="anps-acc-33-1" d="M22.15,25.59A4.16,4.16,0,0,1,18,21.43a16.31,16.31,0,0,1,1.67-6.69h0a4.61,4.61,0,1,0-8.28,0h0a16.31,16.31,0,0,1,1.67,6.69,4.16,4.16,0,0,1-4.16,4.16"/><circle class="anps-acc-33-1" cx="27.9" cy="18.31" r="5.74"/><line class="anps-acc-33-1" x1="26" y1="16.14" x2="29.79" y2="16.14"/><line class="anps-acc-33-1" x1="26" y1="20.48" x2="29.79" y2="20.48"/><line class="anps-acc-33-1" x1="24.28" y1="18.31" x2="31.51" y2="18.31"/><rect class="anps-acc-33-2" width="40" height="40"/></g></g></svg>
