<svg xmlns="http://www.w3.org/2000/svg" viewBox="0 0 40 40"><defs><style>.anps-acc-34-1,.anps-acc-34-2,.anps-acc-34-3{fill:none;}.anps-acc-34-1,.anps-acc-34-2{stroke:currentColor;}.anps-acc-34-1{stroke-miterlimit:10;}.anps-acc-34-2{stroke-linejoin:round;}</style></defs><title>upload-doc</title><g id="Layer_2" data-name="Layer 2"><g id="Layer_1-2" data-name="Layer 1"><path class="anps-acc-34-1" d="M17.82,34.72H32.36a1.79,1.79,0,0,0,1.78-1.78V13.31l-8-8H13.64a1.79,1.79,0,0,0-1.78,1.78v6.24"/><polyline class="anps-acc-34-2" points="26.12 5.28 26.12 13.31 34.15 13.31"/><line class="anps-acc-34-1" x1="15.11" y1="9.24" x2="21.74" y2="9.24"/><line class="anps-acc-34-1" x1="15.11" y1="11.53" x2="21.74" y2="11.53"/><line class="anps-acc-34-1" x1="22.67" y1="21.2" x2="29.29" y2="21.2"/><line class="anps-acc-34-1" x1="22.67" y1="23.84" x2="29.29" y2="23.84"/><line class="anps-acc-34-1" x1="22.67" y1="26.48" x2="29.29" y2="26.48"/><line class="anps-acc-34-1" x1="22.67" y1="29.12" x2="29.29" y2="29.12"/><polygon class="anps-acc-34-2" points="19.57 23.23 11.85 14.9 4.13 23.23 7.95 23.23 7.95 34.61 15.75 34.61 15.75 23.23 19.57 23.23"/><rect class="anps-acc-34-3" width="40" height="40"/></g></g></svg>
