<svg xmlns="http://www.w3.org/2000/svg" viewBox="0 0 40 40"><defs><style>.anps-acc-35-1,.anps-acc-35-2{fill:none;}.anps-acc-35-1{stroke:currentColor;stroke-miterlimit:10;}</style></defs><title>usd</title><g id="Layer_2" data-name="Layer 2"><g id="Layer_1-2" data-name="Layer 1"><line class="anps-acc-35-1" x1="20" y1="11.88" x2="20" y2="28.12"/><polyline class="anps-acc-35-1" points="29.74 6.69 29.74 10.26 26.17 10.26"/><polyline class="anps-acc-35-1" points="13.83 29.74 10.26 29.74 10.26 33.31"/><path class="anps-acc-35-1" d="M31.93,13.1A13.78,13.78,0,0,1,10.26,29.75"/><path class="anps-acc-35-1" d="M8.06,26.89A13.78,13.78,0,0,1,29.74,10.25"/><path class="anps-acc-35-1" d="M15.38,22.67v.92A2.46,2.46,0,0,0,17.83,26h4.33a2.46,2.46,0,0,0,2.46-2.46V22.46A2.46,2.46,0,0,0,22.17,20H17.95a2.46,2.46,0,0,1-2.46-2.46V16.41A2.46,2.46,0,0,1,17.95,14h4a2.46,2.46,0,0,1,2.46,2.46v.66"/><rect class="anps-acc-35-2" width="40" height="40"/></g></g></svg>
