<svg xmlns="http://www.w3.org/2000/svg" viewBox="0 0 40 40"><defs><style>.anps-acc-36-1,.anps-acc-36-2{fill:none;}.anps-acc-36-1{stroke:currentColor;stroke-miterlimit:10;}</style></defs><title>wallet</title><g id="Layer_2" data-name="Layer 2"><g id="Layer_1-2" data-name="Layer 1"><path class="anps-acc-36-1" d="M32.21,9.43H8.6a2.15,2.15,0,0,0-2.14,2.14v-.28A2.15,2.15,0,0,0,8.6,13.43H34.35V11.58A2.15,2.15,0,0,0,32.21,9.43Z"/><line class="anps-acc-36-1" x1="9.14" y1="11.34" x2="31.68" y2="11.34"/><path class="anps-acc-36-1" d="M35.54,18.78h-6.9a2.15,2.15,0,0,0-2.14,2.14v2.32a2.15,2.15,0,0,0,2.14,2.14h6.9Z"/><circle class="anps-acc-36-1" cx="29.96" cy="22.08" r="1.62"/><path class="anps-acc-36-1" d="M34.35,18.78v-7.2a2.15,2.15,0,0,0-2.14-2.14H8.6a2.15,2.15,0,0,0-2.14,2.14V28.42A2.15,2.15,0,0,0,8.6,30.57H34.35V25.38"/><rect class="anps-acc-36-2" width="40" height="40"/></g></g></svg>
